<?xml version="1.0" encoding="UTF-8" standalone="no"?>
<!-- Created with Inkscape (http://www.inkscape.org/) -->

<svg
   xmlns:dc="http://purl.org/dc/elements/1.1/"
   xmlns:cc="http://creativecommons.org/ns#"
   xmlns:rdf="http://www.w3.org/1999/02/22-rdf-syntax-ns#"
   xmlns:svg="http://www.w3.org/2000/svg"
   xmlns="http://www.w3.org/2000/svg"
   xmlns:sodipodi="http://sodipodi.sourceforge.net/DTD/sodipodi-0.dtd"
   xmlns:inkscape="http://www.inkscape.org/namespaces/inkscape"
   width="80mm"
   height="80mm"
   viewBox="0 0 283.46457 283.46457"
   id="svg4279"
   version="1.1"
   inkscape:version="0.91 r13725"
   sodipodi:docname="twitter-follow.svg">
  <defs
     id="defs4281" />
  <sodipodi:namedview
     id="base"
     pagecolor="#ffffff"
     bordercolor="#666666"
     borderopacity="1.0"
     inkscape:pageopacity="0.0"
     inkscape:pageshadow="2"
     inkscape:zoom="0.35"
     inkscape:cx="232.14286"
     inkscape:cy="520"
     inkscape:document-units="px"
     inkscape:current-layer="layer1"
     showgrid="false"
     inkscape:window-width="1235"
     inkscape:window-height="755"
     inkscape:window-x="45"
     inkscape:window-y="1"
     inkscape:window-maximized="1" />
  <metadata
     id="metadata4284">
    <rdf:RDF>
      <cc:Work
         rdf:about="">
        <dc:format>image/svg+xml</dc:format>
        <dc:type
           rdf:resource="http://purl.org/dc/dcmitype/StillImage" />
        <dc:title></dc:title>
      </cc:Work>
    </rdf:RDF>
  </metadata>
  <g
     inkscape:label="Livello 1"
     inkscape:groupmode="layer"
     id="layer1"
     transform="translate(0,-768.89764)">
    <g
       id="g4951"
       transform="matrix(0.44824938,0,0,0.44824938,4.5677491,773.46539)"
       style="fill:#00c1ff;fill-opacity:1">
      <g
         id="g4909"
         style="fill:#00c1ff;fill-opacity:1">
        <g
           id="g4911"
           style="fill:#00c1ff;fill-opacity:1">
          <path
             id="path4913"
             d="m 612,116.258 c -22.525,9.981 -46.694,16.75 -72.088,19.772 25.929,-15.527 45.777,-40.155 55.184,-69.411 -24.322,14.379 -51.169,24.82 -79.775,30.48 -22.907,-24.437 -55.49,-39.658 -91.63,-39.658 -69.334,0 -125.551,56.217 -125.551,125.513 0,9.828 1.109,19.427 3.251,28.606 -104.326,-5.24 -196.835,-55.223 -258.75,-131.174 -10.823,18.51 -16.98,40.078 -16.98,63.101 0,43.559 22.181,81.993 55.835,104.479 C 60.921,247.278 41.57,241.618 24.629,232.21 l 0,1.568 c 0,60.806 43.291,111.554 100.693,123.104 -10.517,2.83 -21.607,4.398 -33.08,4.398 -8.107,0 -15.947,-0.803 -23.634,-2.333 15.985,49.907 62.336,86.199 117.253,87.194 -42.947,33.654 -97.099,53.655 -155.916,53.655 -10.134,0 -20.116,-0.612 -29.944,-1.721 55.567,35.681 121.536,56.485 192.438,56.485 230.948,0 357.188,-191.291 357.188,-357.188 l -0.421,-16.253 C 573.872,163.526 595.211,141.422 612,116.258 Z"
             style="fill:#00c1ff;fill-opacity:1"
             inkscape:connector-curvature="0" />
        </g>
      </g>
      <g
         id="g4915"
         style="fill:#00c1ff;fill-opacity:1" />
      <g
         id="g4917"
         style="fill:#00c1ff;fill-opacity:1" />
      <g
         id="g4919"
         style="fill:#00c1ff;fill-opacity:1" />
      <g
         id="g4921"
         style="fill:#00c1ff;fill-opacity:1" />
      <g
         id="g4923"
         style="fill:#00c1ff;fill-opacity:1" />
      <g
         id="g4925"
         style="fill:#00c1ff;fill-opacity:1" />
      <g
         id="g4927"
         style="fill:#00c1ff;fill-opacity:1" />
      <g
         id="g4929"
         style="fill:#00c1ff;fill-opacity:1" />
      <g
         id="g4931"
         style="fill:#00c1ff;fill-opacity:1" />
      <g
         id="g4933"
         style="fill:#00c1ff;fill-opacity:1" />
      <g
         id="g4935"
         style="fill:#00c1ff;fill-opacity:1" />
      <g
         id="g4937"
         style="fill:#00c1ff;fill-opacity:1" />
      <g
         id="g4939"
         style="fill:#00c1ff;fill-opacity:1" />
      <g
         id="g4941"
         style="fill:#00c1ff;fill-opacity:1" />
      <g
         id="g4943"
         style="fill:#00c1ff;fill-opacity:1" />
    </g>
  </g>
</svg>
