<?xml version="1.0" encoding="UTF-8" standalone="no"?>
<!-- Created with Inkscape (http://www.inkscape.org/) -->

<svg
   xmlns:dc="http://purl.org/dc/elements/1.1/"
   xmlns:cc="http://creativecommons.org/ns#"
   xmlns:rdf="http://www.w3.org/1999/02/22-rdf-syntax-ns#"
   xmlns:svg="http://www.w3.org/2000/svg"
   xmlns="http://www.w3.org/2000/svg"
   xmlns:sodipodi="http://sodipodi.sourceforge.net/DTD/sodipodi-0.dtd"
   xmlns:inkscape="http://www.inkscape.org/namespaces/inkscape"
   width="50mm"
   height="19mm"
   viewBox="0 0 177.16535 67.322833"
   id="svg2"
   version="1.1"
   inkscape:version="0.91 r13725"
   sodipodi:docname="bitnfc.svg">
  <defs
     id="defs4" />
  <sodipodi:namedview
     id="base"
     pagecolor="#ffffff"
     bordercolor="#666666"
     borderopacity="1.0"
     inkscape:pageopacity="0.0"
     inkscape:pageshadow="2"
     inkscape:zoom="3.959798"
     inkscape:cx="111.72083"
     inkscape:cy="5.2728176"
     inkscape:document-units="px"
     inkscape:current-layer="layer1"
     showgrid="false"
     inkscape:window-width="1235"
     inkscape:window-height="755"
     inkscape:window-x="45"
     inkscape:window-y="1"
     inkscape:window-maximized="1" />
  <metadata
     id="metadata7">
    <rdf:RDF>
      <cc:Work
         rdf:about="">
        <dc:format>image/svg+xml</dc:format>
        <dc:type
           rdf:resource="http://purl.org/dc/dcmitype/StillImage" />
        <dc:title></dc:title>
      </cc:Work>
    </rdf:RDF>
  </metadata>
  <g
     inkscape:label="Livello 1"
     inkscape:groupmode="layer"
     id="layer1"
     transform="translate(0,-985.03934)">
    <g
       style="font-style:normal;font-weight:normal;font-size:78.05144501px;line-height:125%;font-family:sans-serif;letter-spacing:0px;word-spacing:0px;fill:#ffffff;fill-opacity:1;stroke:none;stroke-width:1px;stroke-linecap:butt;stroke-linejoin:miter;stroke-opacity:1"
       id="text4136">
      <path
         d="m 16.273493,1018.7788 5.073344,0 c 2.887904,0 4.214778,1.0147 4.214778,4.2929 0,6.0099 -1.795183,14.9078 -8.897865,14.9078 -2.809852,0 -3.512315,-1.0927 -3.122057,-3.3562 l 2.7318,-15.8445 z m -15.1419801,17.4836 c -0.15610291,1.0146 -0.23415435,2.0293 -0.23415435,2.8879 0,6.6343 4.83918955,9.3661 13.97120845,9.3661 16.390804,0 22.869074,-13.2687 22.869074,-26.6155 0,-9.132 -4.526984,-14.0493 -14.049261,-14.0493 l -5.463601,0 3.278161,-18.65427 c 0,0 -3.278161,-0.3122 -6.009961,-0.3122 -2.887904,0 -6.1660644,0.3122 -6.1660644,0.3122 l -8.1954017,47.06507 z"
         style="font-style:italic;font-variant:normal;font-weight:bold;font-stretch:normal;font-family:'Absolut Pro reduced';-inkscape-font-specification:'Absolut Pro reduced Bold Italic';fill:#ffffff"
         id="path4248" />
      <path
         d="m 58.165167,1008.1638 c 0,0 -2.575698,-0.3122 -5.775807,-0.3122 -3.200109,0 -6.400218,0.3122 -6.400218,0.3122 l -6.868528,40.0404 c 0,0 2.497647,0.3122 5.93191,0.3122 3.356212,0 6.166064,-0.3122 6.166064,-0.3122 l 6.946579,-40.0404 z m -5.307498,-3.5123 c 3.200109,0 6.009961,-0.3122 6.009961,-0.3122 0,0 0.702463,-2.4976 1.326875,-5.38554 0.468308,-2.7318 0.468308,-4.99529 0.468308,-4.99529 0,0 -2.653749,-0.31221 -5.93191,-0.31221 -3.356212,0 -6.244115,0.31221 -6.244115,0.31221 0,0 -0.624412,2.18544 -1.09272,4.83919 -0.54636,2.96594 -0.702463,5.54164 -0.702463,5.54164 0,0 2.809852,0.3122 6.166064,0.3122 z"
         style="font-style:italic;font-variant:normal;font-weight:bold;font-stretch:normal;font-family:'Absolut Pro reduced';-inkscape-font-specification:'Absolut Pro reduced Bold Italic';fill:#ffffff"
         id="path4250" />
      <path
         d="m 60.514028,1035.9501 c -0.156102,1.0147 -0.234154,2.0294 -0.234154,2.888 0,6.5563 4.761138,9.3661 13.815106,9.3661 l 3.668418,0 c 0,0 1.873234,-5.1514 1.873234,-10.5369 -6.400218,0 -7.02463,-1.0927 -6.634372,-3.3562 l 2.575697,-15.2201 7.492939,0 c 0,0 0.858566,-2.2635 1.404926,-5.3855 0.468309,-2.966 0.54636,-5.5417 0.54636,-5.5417 l -7.492939,0 1.639081,-9.13199 -12.878489,4.05869 -5.775807,32.8596 z"
         style="font-style:italic;font-variant:normal;font-weight:bold;font-stretch:normal;font-family:'Absolut Pro reduced';-inkscape-font-specification:'Absolut Pro reduced Bold Italic';fill:#ffffff"
         id="path4252" />
      <path
         d="m 83.942882,1048.2042 c 0,0 3.200109,0.3122 5.853858,0.3122 3.044007,0 6.244116,-0.3122 6.244116,-0.3122 l 4.526984,-26.4594 c 0.39026,-2.2635 1.87323,-3.3562 4.44893,-3.3562 2.80985,0 3.51232,1.0927 3.12206,3.3562 l -4.52698,26.4594 c 0,0 3.12205,0.3122 5.85385,0.3122 2.96596,0 6.32217,-0.3122 6.32217,-0.3122 l 4.83919,-28.0985 c 0.1561,-1.0147 0.23416,-2.0293 0.23416,-2.8879 0,-6.6344 -4.83919,-9.3662 -13.97121,-9.3662 -10.302794,0 -16.312755,1.9513 -18.107939,12.2541 l -4.839189,28.0985 z"
         style="font-style:italic;font-variant:normal;font-weight:bold;font-stretch:normal;font-family:'Absolut Pro reduced';-inkscape-font-specification:'Absolut Pro reduced Bold Italic';fill:#ffffff"
         id="path4254" />
      <path
         d="m 121.97222,1048.2042 c 0,0 2.88791,0.3122 6.16607,0.3122 2.8879,0 5.93191,-0.3122 5.93191,-0.3122 l 5.07334,-29.1132 9.05397,0 c 0,0 0.70246,-2.2635 1.24882,-5.3855 0.46831,-2.8099 0.62441,-5.4636 0.62441,-5.4636 l -8.89786,0 c 1.01467,-5.8539 2.18544,-8.1954 7.18073,-8.1954 1.95129,0 3.27816,0.3902 4.60504,0.6244 0,0 0.78051,-2.5757 1.40492,-6.00997 0.39026,-2.65375 0.54636,-5.15139 0.54636,-5.15139 -3.044,-0.46831 -4.76113,-0.54636 -6.86852,-0.54636 -12.80044,0 -17.17132,7.72709 -19.27871,19.59092 l -6.79048,39.6501 z"
         style="font-style:italic;font-variant:normal;font-weight:bold;font-stretch:normal;font-family:'Absolut Pro reduced';-inkscape-font-specification:'Absolut Pro reduced Bold Italic';fill:#ffffff"
         id="path4256" />
      <path
         d="m 147.07673,1034.155 c 0,7.8832 3.12206,14.3614 12.95654,14.3614 3.82452,0 6.55633,-0.3122 9.28813,-0.5463 0,0 0.70246,-2.4196 1.32687,-5.5417 0.46831,-2.9659 0.62441,-5.6197 0.62441,-5.6197 -3.27816,0.5464 -5.07334,0.6244 -7.02463,0.6244 -3.51231,0 -4.76114,-1.2488 -4.76114,-4.3709 0,-7.1026 1.95129,-14.4395 8.0393,-14.4395 1.95129,0 3.74647,0.078 6.86853,0.6244 0,0 0.70246,-2.4196 1.24882,-5.6977 0.62441,-3.1221 0.62441,-5.4636 0.62441,-5.4636 -3.82452,-0.4683 -6.16606,-0.5464 -9.05396,-0.5464 -15.84445,0 -20.13728,14.2834 -20.13728,26.6156 z"
         style="font-style:italic;font-variant:normal;font-weight:bold;font-stretch:normal;font-family:'Absolut Pro reduced';-inkscape-font-specification:'Absolut Pro reduced Bold Italic';fill:#ffffff"
         id="path4258" />
    </g>
  </g>
</svg>
