<?xml version="1.0" encoding="UTF-8" standalone="no"?>
<!-- Created with Inkscape (http://www.inkscape.org/) -->

<svg
   xmlns:dc="http://purl.org/dc/elements/1.1/"
   xmlns:cc="http://creativecommons.org/ns#"
   xmlns:rdf="http://www.w3.org/1999/02/22-rdf-syntax-ns#"
   xmlns:svg="http://www.w3.org/2000/svg"
   xmlns="http://www.w3.org/2000/svg"
   xmlns:sodipodi="http://sodipodi.sourceforge.net/DTD/sodipodi-0.dtd"
   xmlns:inkscape="http://www.inkscape.org/namespaces/inkscape"
   width="50mm"
   height="19mm"
   viewBox="0 0 177.16535 67.322833"
   id="svg2"
   version="1.1"
   inkscape:version="0.91 r13725"
   sodipodi:docname="fuffa.svg">
  <defs
     id="defs4" />
  <sodipodi:namedview
     id="base"
     pagecolor="#ffffff"
     bordercolor="#666666"
     borderopacity="1.0"
     inkscape:pageopacity="0.0"
     inkscape:pageshadow="2"
     inkscape:zoom="3.959798"
     inkscape:cx="90.593233"
     inkscape:cy="15.374343"
     inkscape:document-units="px"
     inkscape:current-layer="layer1"
     showgrid="false"
     inkscape:window-width="1235"
     inkscape:window-height="755"
     inkscape:window-x="45"
     inkscape:window-y="1"
     inkscape:window-maximized="1" />
  <metadata
     id="metadata7">
    <rdf:RDF>
      <cc:Work
         rdf:about="">
        <dc:format>image/svg+xml</dc:format>
        <dc:type
           rdf:resource="http://purl.org/dc/dcmitype/StillImage" />
        <dc:title></dc:title>
      </cc:Work>
    </rdf:RDF>
  </metadata>
  <g
     inkscape:label="Livello 1"
     inkscape:groupmode="layer"
     id="layer1"
     transform="translate(0,-985.03934)">
    <g
       style="font-style:normal;font-weight:normal;font-size:69.82792664px;line-height:125%;font-family:sans-serif;letter-spacing:0px;word-spacing:0px;fill:#ffffff;fill-opacity:1;stroke:none;stroke-width:1px;stroke-linecap:butt;stroke-linejoin:miter;stroke-opacity:1"
       id="text4136">
      <path
         d="m 19.191163,993.65866 c -10.8233285,0 -18.43457255,7.12244 -18.43457255,17.94574 0,9.2173 0,21.7863 0,31.0036 l 17.17766955,0 0,-15.5018 12.010404,0 0,-16.2699 c -7.541416,0 -4.468988,0 -12.010404,0 0,-0.4888 0.418968,-0.9077 0.977591,-0.9077 l 11.032813,0 0,-16.26994 -10.753501,0 z"
         style="font-style:normal;font-variant:normal;font-weight:normal;font-stretch:normal;font-family:'Null Free';-inkscape-font-specification:'Null Free';fill:#ffffff"
         id="path4179" />
      <path
         d="m 55.244195,1022.7769 c 0,4.888 -6.07503,4.888 -6.07503,0 l 0,-19.063 0,-0.2793 -17.317325,0 0,20.0406 c 0,27.0234 40.709681,27.0234 40.709681,0 l 0,-20.0406 -17.317326,0 0,0.2793 0,19.063 z"
         style="font-style:normal;font-variant:normal;font-weight:normal;font-stretch:normal;font-family:'Null Free';-inkscape-font-specification:'Null Free';fill:#ffffff"
         id="path4181" />
      <path
         d="m 92.8378,993.65866 c -10.823329,0 -18.434573,7.12244 -18.434573,17.94574 0,9.2173 0,21.7863 0,31.0036 l 17.17767,0 0,-15.5018 12.010403,0 0,-16.2699 c -7.541415,0 -4.468987,0 -12.010403,0 0,-0.4888 0.418968,-0.9077 0.977591,-0.9077 l 11.032812,0 0,-16.26994 -10.7535,0 z"
         style="font-style:normal;font-variant:normal;font-weight:normal;font-stretch:normal;font-family:'Null Free';-inkscape-font-specification:'Null Free';fill:#ffffff"
         id="path4183" />
      <path
         d="m 123.93305,993.65866 c -10.82333,0 -18.43457,7.12244 -18.43457,17.94574 0,9.2173 0,21.7863 0,31.0036 l 17.17767,0 0,-15.5018 12.0104,0 0,-16.2699 c -7.54141,0 -4.46898,0 -12.0104,0 0,-0.4888 0.41897,-0.9077 0.97759,-0.9077 l 11.03281,0 0,-16.26994 -10.7535,0 z"
         style="font-style:normal;font-variant:normal;font-weight:normal;font-stretch:normal;font-family:'Null Free';-inkscape-font-specification:'Null Free';fill:#ffffff"
         id="path4185" />
      <path
         d="m 156.22847,1002.2475 c -11.17247,0 -20.18027,9.0078 -20.18027,20.1803 0,11.1026 9.0078,20.1802 20.18027,20.1802 l 2.44398,0 0,-16.6888 -2.44398,0 c -1.95518,0 -3.49139,-1.6061 -3.49139,-3.4914 0,-1.8854 1.53621,-3.4914 3.49139,-3.4914 1.88536,0 3.42157,1.606 3.42157,3.4914 0,6.7034 0,13.4069 0,20.1802 l 16.7587,0 0,-20.1802 c 0,-11.1725 -9.07763,-20.1803 -20.18027,-20.1803 z"
         style="font-style:normal;font-variant:normal;font-weight:normal;font-stretch:normal;font-family:'Null Free';-inkscape-font-specification:'Null Free';fill:#ffffff"
         id="path4187" />
    </g>
  </g>
</svg>
