<?xml version="1.0" encoding="UTF-8" standalone="no"?>
<!-- Created with Inkscape (http://www.inkscape.org/) -->

<svg
   xmlns:dc="http://purl.org/dc/elements/1.1/"
   xmlns:cc="http://creativecommons.org/ns#"
   xmlns:rdf="http://www.w3.org/1999/02/22-rdf-syntax-ns#"
   xmlns:svg="http://www.w3.org/2000/svg"
   xmlns="http://www.w3.org/2000/svg"
   xmlns:sodipodi="http://sodipodi.sourceforge.net/DTD/sodipodi-0.dtd"
   xmlns:inkscape="http://www.inkscape.org/namespaces/inkscape"
   width="50mm"
   height="19mm"
   viewBox="0 0 177.16535 67.322833"
   id="svg2"
   version="1.1"
   inkscape:version="0.91 r13725"
   sodipodi:docname="yogurl.svg">
  <defs
     id="defs4" />
  <sodipodi:namedview
     id="base"
     pagecolor="#ffffff"
     bordercolor="#666666"
     borderopacity="1.0"
     inkscape:pageopacity="0.0"
     inkscape:pageshadow="2"
     inkscape:zoom="3.959798"
     inkscape:cx="90.593233"
     inkscape:cy="15.374343"
     inkscape:document-units="px"
     inkscape:current-layer="layer1"
     showgrid="false"
     inkscape:window-width="1235"
     inkscape:window-height="755"
     inkscape:window-x="45"
     inkscape:window-y="1"
     inkscape:window-maximized="1" />
  <metadata
     id="metadata7">
    <rdf:RDF>
      <cc:Work
         rdf:about="">
        <dc:format>image/svg+xml</dc:format>
        <dc:type
           rdf:resource="http://purl.org/dc/dcmitype/StillImage" />
        <dc:title></dc:title>
      </cc:Work>
    </rdf:RDF>
  </metadata>
  <g
     inkscape:label="Livello 1"
     inkscape:groupmode="layer"
     id="layer1"
     transform="translate(0,-985.03934)">
    <g
       style="font-style:normal;font-weight:normal;font-size:56.92098999px;line-height:125%;font-family:sans-serif;letter-spacing:0px;word-spacing:0px;fill:#ffffff;fill-opacity:1;stroke:none;stroke-width:1px;stroke-linecap:butt;stroke-linejoin:miter;stroke-opacity:1"
       id="text4136">
      <path
         d="m 31.579678,995.34844 q 3.187575,-1.25226 5.521336,-0.51229 2.390681,0.68305 3.756785,2.90297 1.366104,2.163 1.70763,5.52138 0.398447,3.3583 -0.341526,7.3428 -1.024578,5.1229 -4.382916,8.7658 -3.301418,3.6429 -8.253544,5.1229 -0.455368,2.4476 -0.739973,4.8383 -0.227684,2.3907 -0.341526,4.4967 -0.170763,2.1061 -0.398447,3.8707 -0.170763,1.8214 -0.56921,3.0737 -0.341526,1.3092 -1.024577,1.9353 -0.683052,0.6831 -1.821472,0.5123 -1.366104,-0.1708 -2.959892,-1.0246 -1.593787,-0.7969 -2.959891,-2.846 -1.366104,-2.0492 -2.219919,-5.6921 -0.853815,-3.5861 -0.796894,-9.3351 -2.789128,-0.9676 -4.496758,-2.6753 -1.6507085,-1.7076 -2.6752863,-3.7567 -1.0245779,-2.0492 -1.5368668,-4.2691 -0.4553679,-2.2199 -0.8538148,-4.2691 -0.341526,-2.0492 -0.7399729,-3.6999 -0.3415259,-1.7076 -1.1384198,-2.6752 -0.3984469,-0.4554 -0.9107358,-0.6262 -0.5122889,-0.1707 -1.0245778,-0.2277 -0.512289,-0.1138 -0.9676569,-0.2846 -0.3984469,-0.1707 -0.62613086,-0.6261 -0.34152594,-0.74 0.22768396,-1.76455 0.5692099,-1.02458 1.6507087,-2.04916 1.1384198,-1.02457 2.6752865,-1.82147 1.5937878,-0.85381 3.3014175,-1.19534 1.7645503,-0.39845 3.4721803,-0.11384 1.764551,0.22768 3.244496,1.42302 2.162998,1.76456 3.016813,4.38294 0.853815,2.5614 1.081499,5.4075 0.284605,2.846 0.227684,5.6921 -0.05692,2.7891 0.170763,5.009 0.284605,2.163 1.19534,3.4153 0.967657,1.2522 3.187576,0.9676 0.853815,-0.1138 1.992235,-0.6261 1.138419,-0.5692 2.162997,-1.7076 1.081499,-1.1954 1.935314,-3.0738 0.853815,-1.8783 1.13842,-4.6675 0.170763,-1.7645 -0.341526,-3.3583 -0.455368,-1.5938 -1.081499,-3.0168 -0.626131,-1.4231 -1.195341,-2.6753 -0.56921,-1.2523 -0.626131,-2.33378 -0.05692,-1.13842 0.626131,-2.04915 0.739973,-0.91074 2.732208,-1.70763 z"
         style="font-style:normal;font-variant:normal;font-weight:normal;font-stretch:normal;font-family:'Rakoon Personal Use';-inkscape-font-specification:'Rakoon Personal Use';fill:#ffffff"
         id="path4209" />
      <path
         d="m 53.396427,1010.0341 q 2.959891,0 5.17981,0.9676 2.27684,0.9107 3.756785,2.6184 1.479946,1.6507 2.106077,4.0414 0.683052,2.3337 0.341526,5.2367 -0.512289,4.4968 -3.642943,6.9444 -3.073734,2.4476 -7.741255,2.4476 -4.667521,0 -7.798176,-2.4476 -3.073733,-2.4476 -3.586022,-6.9444 -0.341526,-2.903 0.341526,-5.2367 0.626131,-2.3907 2.106076,-4.0414 1.479946,-1.7077 3.699865,-2.6184 2.276839,-0.9676 5.236731,-0.9676 z m 1.935314,9.1073 q 0.05692,-1.3661 -0.512289,-2.0491 -0.512289,-0.74 -1.423025,-0.74 -0.910736,0 -1.479946,0.74 -0.512289,0.683 -0.455368,2.0491 0,1.3092 0.56921,1.9353 0.626131,0.5692 1.366104,0.5692 0.739973,0 1.309183,-0.5692 0.626131,-0.6261 0.626131,-1.9353 z"
         style="font-style:normal;font-variant:normal;font-weight:normal;font-stretch:normal;font-family:'Rakoon Personal Use';-inkscape-font-specification:'Rakoon Personal Use';fill:#ffffff"
         id="path4211" />
      <path
         d="m 79.169183,1031.721 q 2.675287,-0.9677 3.699864,-2.6184 1.024578,-1.6507 0.05692,-3.3014 -0.170763,0.7399 -0.853814,1.5368 -0.626131,0.74 -1.650709,1.3661 -1.024578,0.6262 -2.447603,1.0246 -1.366103,0.3415 -2.959891,0.2846 -4.098311,-0.2277 -6.545914,-2.2199 -2.390682,-2.0492 -2.390682,-6.6028 0,-2.903 0.967657,-4.9522 0.967657,-2.106 2.447603,-3.4721 1.479945,-1.3661 3.187575,-1.9923 1.70763,-0.6261 3.187576,-0.6261 1.479945,0 2.561444,0.3415 1.081499,0.2846 1.878393,0.7969 0.853815,0.5123 1.479946,1.1954 0.62613,0.6261 1.138419,1.2522 1.024578,-1.8215 2.902971,-2.7891 1.878393,-1.0246 4.553679,-0.7969 1.536867,0.1138 2.561445,0.683 1.024577,0.5123 1.536866,1.9923 0.56921,1.423 0.626131,4.0983 0.05692,2.6184 -0.341526,7.0013 -0.341526,4.269 -1.366103,7.2859 -0.967657,2.9599 -2.732208,4.8382 -1.70763,1.9354 -4.325995,2.9599 -2.561445,1.0246 -6.090546,1.4231 -3.073734,0.3415 -5.635178,0.057 -2.561445,-0.2846 -4.724442,-1.2523 -1.70763,-0.7969 -2.675287,-2.0491 -0.910736,-1.1954 -1.252262,-2.5046 -0.398447,-1.3091 -0.227684,-2.5614 0.170763,-1.2523 0.683052,-2.0492 0.512289,-0.7969 1.309183,-0.9676 0.796894,-0.2277 1.70763,0.5692 0.796894,0.683 1.935313,1.3092 1.13842,0.5692 2.447603,0.9107 1.309183,0.2846 2.675287,0.2846 1.366103,0 2.675286,-0.4553 z m 1.479946,-10.0751 q 0.739973,0 1.309183,-0.5692 0.62613,-0.6261 0.683051,-1.9353 0.05692,-1.3661 -0.512288,-2.0491 -0.56921,-0.74 -1.479946,-0.74 -0.853815,0 -1.423025,0.74 -0.56921,0.683 -0.512289,2.0491 0.05692,1.3092 0.626131,1.9353 0.56921,0.5692 1.309183,0.5692 z"
         style="font-style:normal;font-variant:normal;font-weight:normal;font-stretch:normal;font-family:'Rakoon Personal Use';-inkscape-font-specification:'Rakoon Personal Use';fill:#ffffff"
         id="path4213" />
      <path
         d="m 130.90858,1017.4338 q 0.68306,2.6183 0.51229,5.2936 -0.11384,2.6184 -1.13842,4.7814 -1.02457,2.1061 -2.95989,3.4722 -1.87839,1.3092 -4.66752,1.3092 -2.04916,0 -3.47218,-0.6262 -1.42302,-0.6261 -2.33376,-1.6507 -0.85382,-1.0246 -1.30918,-2.2768 -0.39845,-1.2523 -0.51229,-2.5045 -0.45537,1.3091 -1.30918,2.5614 -0.7969,1.2523 -1.99224,2.2768 -1.19534,0.9677 -2.67529,1.5938 -1.47994,0.6262 -3.18757,0.6262 -2.33376,0 -4.09831,-0.9108 -1.76455,-0.9107 -2.902973,-2.4476 -1.081499,-1.5938 -1.536867,-3.6998 -0.455368,-2.163 -0.227684,-4.6676 0.455368,-5.8628 3.073734,-8.3104 2.67529,-2.5046 7.28589,-2.1061 1.53686,0.1138 2.4476,0.5123 0.96766,0.3984 1.30918,1.2522 0.34153,0.8539 0.17076,2.22 -0.17076,1.3661 -0.79689,3.4152 -0.51229,1.6507 -0.2846,2.6753 0.2846,0.9677 0.85381,1.0815 0.62613,0.1139 1.30918,-0.74 0.68306,-0.8538 0.96766,-2.9029 0.62613,-4.0983 2.61837,-5.9198 2.04915,-1.8784 5.91978,-1.5938 3.13065,0.2846 4.15523,2.163 1.02458,1.8215 0.45537,5.5213 -0.22769,1.48 0.17076,2.2769 0.45537,0.7399 1.13842,0.7399 0.73997,0 1.53687,-0.7969 0.85381,-0.8538 1.47994,-2.6183 z"
         style="font-style:normal;font-variant:normal;font-weight:normal;font-stretch:normal;font-family:'Rakoon Personal Use';-inkscape-font-specification:'Rakoon Personal Use';fill:#ffffff"
         id="path4215" />
      <path
         d="m 130.90503,1019.5968 q -0.11385,-1.3661 0.0569,-3.0738 0.22768,-1.7076 0.91073,-3.1875 0.73998,-1.48 2.163,-2.4476 1.47995,-0.9677 3.92755,-0.8538 1.59379,0.1138 2.84605,0.7399 1.30918,0.6262 1.76455,2.1061 0.79689,-1.1384 1.87839,-1.9353 1.13842,-0.7969 2.56145,-1.0815 2.04915,-0.3985 3.47218,-0.057 1.42302,0.3415 2.27684,1.2522 0.85381,0.9108 1.0815,2.2769 0.2846,1.3092 0,2.846 -0.28461,1.423 0.0569,2.2769 0.39844,0.8538 1.0815,1.0815 0.68305,0.1707 1.47994,-0.2846 0.85382,-0.5123 1.47995,-1.8215 0.79689,2.4476 0.17076,4.2691 -0.62613,1.8214 -2.04916,2.9598 -1.3661,1.0815 -3.24449,1.48 -1.8784,0.3984 -3.58602,0 -1.70763,-0.4554 -2.9599,-1.6507 -1.19534,-1.2523 -1.30918,-3.4153 -0.0569,-0.683 -0.34153,-1.0815 -0.2846,-0.4553 -0.62613,-0.1707 -0.2846,0.2276 -0.51228,1.423 -0.22769,1.1953 -0.0569,3.7568 0,0.8538 0.11385,2.1061 0.11384,1.1953 -0.0569,2.3906 -0.11385,1.1385 -0.73998,1.9923 -0.62613,0.7969 -2.10607,0.7969 -1.70763,0 -3.35834,-0.4554 -1.65071,-0.5123 -2.95989,-1.8784 -1.30919,-1.423 -2.21992,-3.8706 -0.91074,-2.5046 -1.19534,-6.489 z"
         style="font-style:normal;font-variant:normal;font-weight:normal;font-stretch:normal;font-family:'Rakoon Personal Use';-inkscape-font-specification:'Rakoon Personal Use';fill:#ffffff"
         id="path4217" />
      <path
         d="m 175.96154,1017.4338 q 0.68305,2.6183 0.51229,5.2936 -0.11384,2.6184 -1.13842,4.7814 -1.02458,2.1061 -2.95989,3.4722 -1.87839,1.3092 -4.66752,1.3092 -2.10608,0 -3.75679,-0.74 -1.65071,-0.7969 -2.84605,-2.5615 -1.19534,-1.8214 -1.99223,-4.7244 -0.79689,-2.9599 -1.13842,-7.229 -0.79689,-10.3027 1.82147,-15.2548 2.61837,-4.95212 8.70891,-4.95212 2.78913,0 4.21216,0.91074 1.47994,0.85382 1.93531,2.33378 0.51229,1.4799 0.22768,3.4722 -0.22768,1.9353 -0.79689,4.0983 -0.56921,2.163 -1.25226,4.3829 -0.68305,2.2199 -1.0815,4.2691 -0.39845,1.9922 -0.0569,3.0737 0.39844,1.0815 1.13842,1.2523 0.73997,0.1707 1.59379,-0.6262 0.91073,-0.7969 1.53686,-2.5614 z"
         style="font-style:normal;font-variant:normal;font-weight:normal;font-stretch:normal;font-family:'Rakoon Personal Use';-inkscape-font-specification:'Rakoon Personal Use';fill:#ffffff"
         id="path4219" />
    </g>
  </g>
</svg>
